<?xml version="1.0" encoding="utf-8"?>
<!-- Generator: Adobe Illustrator 18.0.0, SVG Export Plug-In . SVG Version: 6.00 Build 0)  -->
<!DOCTYPE svg PUBLIC "-//W3C//DTD SVG 1.1//EN" "http://www.w3.org/Graphics/SVG/1.1/DTD/svg11.dtd">
<svg version="1.1" id="Camada_1" xmlns="http://www.w3.org/2000/svg" xmlns:xlink="http://www.w3.org/1999/xlink" x="0px" y="0px"
	 viewBox="-4 349.9 603.3 142.1" enable-background="new -4 349.9 603.3 142.1" xml:space="preserve">
<path fill="#828282" d="M307,461.3c6.4,4.4,15.4,7.6,25.4,7.6c13.5,0,26-7.9,26-22.5c0-8.9-5.1-15.4-17.5-22.4
	c-15.3-8.2-23.8-17.8-23.8-30.7c0-21.3,18.5-35.2,40.5-35.2c11.5,0,20.3,3.6,24.5,6.4l-5.3,11.9c-3.7-2.1-11.1-5.7-20.7-5.5
	c-14.7,0-23.6,9.7-23.6,19.6c0,9.7,6,15.3,18.5,22.2c14.7,7.8,22.9,17.2,22.9,32c0,20.7-16.4,37-43.1,37c-12.1,0-23.8-3.9-28.8-8.2
	L307,461.3z"/>
<path fill="#828282" d="M379.3,479.8l16.5-85.9h14.7L394,479.8H379.3z M398.4,369.9c0-5.7,4.4-10,9.7-10c5.3,0,8.7,3.9,8.7,9.2
	c-0.2,5.8-4.3,10-10,10C401.8,379,398.4,375.1,398.4,369.9"/>
<path fill="#828282" d="M454,370.7l-4.5,23.1h20.6l-2.3,11.5h-20.6l-7.9,41.7c-0.8,4.7-1.5,9.2-1.5,13.9c0,5.1,2.5,8.2,8.2,8.2
	c2.5,0,5-0.1,6.9-0.6l-0.7,11.5c-2.6,1.1-7.1,1.5-11.4,1.5c-13.2,0-18.1-7.9-18.1-16.7c0-5,0.5-10,1.8-16.1l8.5-43.5h-12.4l2.4-11.5
	H435l3.8-19.3L454,370.7z"/>
<path fill="#828282" d="M524.2,474.8c-6.4,3.7-16.8,6.8-28.4,6.8c-22.8,0-32.7-15.4-32.7-34.5c0-26,19.2-55.2,46.8-55.2
	c16.4,0,25.2,9.7,25.2,22c0,22.5-25.4,28.6-57.1,28.1c-0.7,3.8-0.1,11.7,1.8,16.4c3.3,7.6,10.3,11.5,19.2,11.5
	c10.1,0,17.8-3.2,23.1-6L524.2,474.8z M507.8,403.5c-14,0-24.5,13.6-28.1,27.1c23.1,0.1,41.1-2.8,41.1-16.1
	C521,407.4,515.6,403.5,507.8,403.5"/>
<path fill="#828282" d="M538.9,464.9c4,2.5,11.5,5.3,18.5,5.3c10,0,16.4-6.4,16.4-14c0-6.8-3.1-10.8-11.9-15.8
	c-10-5.5-15.4-13.2-15.4-21.8c0-15.1,12.9-26.7,31.1-26.7c7.8,0,14.7,2.1,17.9,4.3l-4,11.1c-3-1.8-8.5-3.9-14.9-3.9
	c-8.9,0-15.3,5.5-15.3,12.9c0,6.2,4,10.1,11.7,14.3c9.6,5.5,16.1,12.9,16.1,22.5c0,18.1-14.7,28.2-32.8,28.2
	c-9.2,0-17.4-2.8-21.3-5.8L538.9,464.9z"/>
<path fill="#828282" d="M117,478.7c-12.1,3.7-31.1,8.3-49.9,8.3c-17.8,0-34.5-4.3-46.9-13.3C8.3,465.1,0,450.2,0,430
	c0-24.5,10.8-43.5,27.9-56.4C44.1,361.3,66.4,355,91.5,355c19,0,34.4,3.4,40.3,6.3l-9.8,28.3c-6.3-2.7-18.4-5.9-31.9-5.9
	c-12.8,0-24.5,2.8-33.2,8.3C45.6,399.2,38,411.5,38,426.8c0,22.4,15.8,31.3,35.4,31.3c7.1,0,10.9-0.9,13.6-2.1l4.1-20.4H71.1l5.3-27
	h53.9L117,478.7z"/>
<path fill="#828282" d="M179.5,487.9c-34.8,0-60.6-21.5-60.6-58.3c0-22.4,8.4-41.5,22.4-54.6c14.1-13.2,33.2-20.9,55.1-20.9
	c35.3,0,60.5,20.7,60.5,58.9c0,22.3-8.1,41-21.8,54.3c-13.6,13-32.8,20.7-55.2,20.7h-0.4V487.9z M184.4,459.9c8.4,0,16.1-3.7,22-9.6
	c8.4-8.4,13.4-21.7,13.4-35.3c0-18.6-7.2-33-27.4-33c-9,0-16.8,3.8-23,10c-8.8,8.8-13.8,22.3-13.8,35.3c0,20.7,10,32.6,28.6,32.6
	H184.4z"/>
<path fill="#828282" d="M269.1,487.9c-10.8,0-18.3-7.5-18.3-18c0-12.7,9-23,22.9-23c10.5,0,18.6,7.5,18.6,18.8
	c0,13-9.4,22.3-23,22.3h-0.2V487.9z M263.5,440.9l10.8-84.6h35.8l-21.5,84.6H263.5z"/>
</svg>
