<?xml version="1.0" encoding="utf-8"?>
<!-- Generator: Adobe Illustrator 18.0.0, SVG Export Plug-In . SVG Version: 6.00 Build 0)  -->
<!DOCTYPE svg PUBLIC "-//W3C//DTD SVG 1.1//EN" "http://www.w3.org/Graphics/SVG/1.1/DTD/svg11.dtd">
<svg version="1.1" id="Camada_1" xmlns="http://www.w3.org/2000/svg" xmlns:xlink="http://www.w3.org/1999/xlink" x="0px" y="0px"
	 viewBox="0 0 24 17" enable-background="new 0 0 24 17" xml:space="preserve">
<path fill-rule="evenodd" clip-rule="evenodd" fill="#7A682C" d="M16.4,7.6l7.3-7.3C23.9,0.5,24,0.8,24,1.2v14.7
	c0,0.3-0.1,0.6-0.3,0.8L16.4,7.6z M0.4,0.3C0.6,0.1,0.8,0,1.1,0h21.7c0.3,0,0.6,0.1,0.8,0.3L12,9.7L0.4,0.3z M0.3,16.6
	C0.1,16.4,0,16.1,0,15.8V1.2c0-0.3,0.1-0.6,0.3-0.8l7.3,7.3L0.3,16.6z M12,12l3.1-3l8.6,7.7c-0.2,0.2-0.5,0.3-0.8,0.3H1.1
	c-0.3,0-0.6-0.1-0.8-0.3l8.6-7.7L12,12z"/>
</svg>
