<?xml version="1.0" encoding="utf-8"?>
<!-- Generator: Adobe Illustrator 18.0.0, SVG Export Plug-In . SVG Version: 6.00 Build 0)  -->
<!DOCTYPE svg PUBLIC "-//W3C//DTD SVG 1.1//EN" "http://www.w3.org/Graphics/SVG/1.1/DTD/svg11.dtd">
<svg version="1.1" id="Capa_1" xmlns="http://www.w3.org/2000/svg" xmlns:xlink="http://www.w3.org/1999/xlink" x="0px" y="0px"
	 viewBox="0 0 512 512" enable-background="new 0 0 512 512" xml:space="preserve">
<g opacity="0.55">
	<path fill="#7E662E" d="M256,0C114.6,0,0,114.6,0,256s114.6,256,256,256s256-114.6,256-256S397.4,0,256,0z M256,472
		c-119.3,0-216-96.7-216-216S136.7,40,256,40s216,96.7,216,216S375.3,472,256,472z"/>
</g>
<path opacity="0.55" fill="#7E662E" d="M354.1,128.5h-194c-16.7,0-31,15.7-31,32.4v194.1c0,16.7,14.3,28.5,31,28.5h194
	c16.7,0,30.1-11.9,30.1-28.5V160.8C384.2,144.1,370.8,128.5,354.1,128.5z M348.1,164.9c4.8,0,8.8,3.9,8.8,8.8v28
	c0,4.8-3.9,8.8-8.8,8.8h-28c-4.8,0-8.8-3.9-8.8-8.8v-28c0-4.8,3.9-8.8,8.8-8.8H348.1z M257.4,209.3c27,0,48.9,21.9,48.9,48.8
	c0,27-21.9,48.8-48.9,48.8c-27,0-48.9-21.9-48.9-48.8C208.4,231.2,230.4,209.3,257.4,209.3z M356.8,348.4c0,3.9-4.2,7.7-8.1,7.7H166
	c-3.9,0-9.6-3.8-9.6-7.7V237.7h26.3c-1.8,9.1-2.8,13.4-2.8,20.4c0,42.6,34.7,77.2,77.4,77.2c42.7,0,77.4-34.6,77.4-77.2
	c0-7.1-1-11.3-2.7-20.4h24.8V348.4z"/>
</svg>
