<?xml version="1.0" encoding="utf-8"?>
<!-- Generator: Adobe Illustrator 18.0.0, SVG Export Plug-In . SVG Version: 6.00 Build 0)  -->
<!DOCTYPE svg PUBLIC "-//W3C//DTD SVG 1.1//EN" "http://www.w3.org/Graphics/SVG/1.1/DTD/svg11.dtd">
<svg version="1.1" id="Camada_1" xmlns="http://www.w3.org/2000/svg" xmlns:xlink="http://www.w3.org/1999/xlink" x="0px" y="0px"
	 viewBox="0 0 1018 577" enable-background="new 0 0 1018 577" xml:space="preserve">
<g>
	<path fill-rule="evenodd" clip-rule="evenodd" fill="#7E662E" d="M934.9,327.2l8.9-10.5l7.7-10.1l7-10.5l6.2-10.1l5.4-10.5
		l4.6-10.5l3.9-10.1l3.1-10.5l2.3-10.1l1.5-10.1l0.8-10.1l0.4-10.1l-0.4-9.7l-0.8-9.7l-1.5-9.3l-2.3-9.3l-2.7-9.3l-3.1-8.9l-3.9-8.5
		l-4.6-8.1l-4.6-8.1l-5.4-8.1l-5.4-7.4l-6.2-7l-6.6-7l-7-6.6l-7.7-5.8l-7.4-5.8l-8.1-5.4l-8.5-4.6l-8.5-4.6l-8.9-3.9l-7-2.3l-7-2.3
		l-7-2.3l-7-1.5l-7.4-1.5l-7.4-1.2l-7.4-0.8l-7.4-0.8l-7.7-0.4h-7.7l-7.7,0.4l-7.7,0.8l-7.7,1.2l-8.1,1.2l-7.7,1.9l-8.1,1.9
		l-8.1,2.3l-7.7,3.1l-8.1,3.1l-7.7,3.5l-8.1,3.9l-8.1,4.6l-7.7,4.6l-8.1,5l-7.7,5.8l-7.7,5.8l-7.7,6.6l-7.7,7l-7.7,7.4l-7.4,7.7
		l-7.4,8.5l-7.4,8.5h-51.9l7.7-13.2l7.7-12.4l8.5-11.6l8.5-11.2l8.9-10.1l9.3-9.7l9.3-8.9l9.7-8.1l10.1-7.4l10.1-6.6l10.5-6.2
		l10.5-5.8l10.5-4.6l10.8-4.3l10.8-3.9l10.8-2.7l11.2-2.7l10.8-1.9l11.2-1.5l10.8-0.8L795.5,5l10.8,0.4l10.8,0.8L828,7.3l10.8,1.5
		l10.5,1.9l10.5,2.7l10.1,3.1l10.1,3.5L890,24l9.7,3.9l9.3,4.6l9.7,5.4l9.3,5.8l8.9,6.2l8.5,6.2l8.1,7l8.1,7l7,7.7l7,7.7l6.6,8.1
		l5.8,8.5l5,8.5l5,8.9l3.9,9.3l3.5,9.3l3.1,9.7l2.3,9.7l1.2,10.1l0.8,10.1l0.4,10.5l-0.8,10.1l-1.5,10.5l-2.3,10.8l-3.1,10.5
		l-4.3,10.8l-4.6,10.8l-5.8,10.8l-7,10.8l-7.7,10.8l-8.5,10.8l-9.7,10.5l-10.8,10.8L934.9,327.2L934.9,327.2z M869.8,172.3h4.6
		l4.6,0.4l4.6,0.4l4.3,0.8l8.9,2.3l8.1,3.1l8.1,3.9l7.4,4.6l7,5.4l6.6,5.8l5.8,6.6l5.4,7l4.6,7.4l3.9,8.1l3.1,8.1l2.3,8.9l0.8,4.3
		l0.8,4.6l0.4,4.6v4.3v5l-0.4,4.3l-0.8,4.6l-0.8,4.6L957,290l-3.1,8.5l-3.9,7.7l-4.6,7.7l-5.4,7l-5.8,6.6l-6.6,5.8l-7,5l-7.4,4.6
		l-8.1,3.9l-8.1,3.1L888,352l-8.9,1.5l-4.6,0.4h-4.6h-4.6l-4.6-0.4l-8.9-1.5l-8.9-1.9l-8.1-3.1l-8.1-3.9l-7.4-4.6l-7-5l-6.6-5.8
		l-5.8-6.6l-5.4-7l-4.6-7.7l-3.5-7.7l-3.1-8.5l-2.3-8.5l-1.5-9.3l-0.4-4.3v-5v-4.3l0.4-4.6l1.5-8.9l2.3-8.9l3.1-8.1l3.5-8.1l4.6-7.4
		l5.4-7l5.8-6.6l6.6-5.8l7-5.4l7.4-4.6l8.1-3.9l8.1-3.1l8.9-2.3l4.6-0.8l4.3-0.4l4.6-0.4H869.8L869.8,172.3z M869.8,204h6.2l5.8,1.2
		l5.4,1.5l5.4,1.9l5,2.7l5,2.7l4.6,3.5l4.3,3.9l3.9,4.3l3.5,4.6l3.1,5l2.3,5l1.9,5.4l1.5,5.4l1.2,5.8l0.4,5.8l-0.4,6.2l-1.2,5.8
		l-1.5,5.8l-1.9,5.4l-2.3,5l-3.1,5l-3.5,4.6l-3.9,3.9l-4.3,3.9l-4.6,3.5l-5,3.1l-5,2.3l-5.4,1.9l-5.4,1.5l-5.8,0.8l-6.2,0.4
		l-5.8-0.4l-5.8-0.8l-5.8-1.5l-5.4-1.9l-5-2.3l-5-3.1l-4.6-3.5l-4.3-3.9l-3.9-3.9l-3.1-4.6l-3.1-5l-2.7-5l-1.9-5.4l-1.5-5.8
		l-0.8-5.8l-0.4-6.2l0.4-5.8l0.8-5.8l1.5-5.4l1.9-5.4l2.7-5l3.1-5l3.1-4.6l3.9-4.3l4.3-3.9l4.6-3.5l5-2.7l5-2.7l5.4-1.9l5.8-1.5
		l5.8-1.2H869.8L869.8,204z M108.9,172.7H191l27.1,222.7L108.9,172.7L108.9,172.7z M9,395.3l12.4,5.4l13.2,4.3l13.2,3.5l13.9,3.1
		l13.9,2.3l14.7,1.5l14.3,0.8h14.7l15.1-0.4l14.7-1.5l15.1-2.3l14.7-2.7l14.7-3.9l14.7-4.6l13.9-5.4l13.9-6.2l13.6-7l6.6-3.5
		l6.6-4.3l6.2-4.3l6.2-4.3l6.2-4.6l5.8-5l5.8-5l5.8-5.4l5.4-5.4l5.4-5.8l5-5.8l4.6-6.2l4.6-6.2l4.6-6.6l4.3-7l4.3-7l3.5-7.4l3.9-7.7
		l3.1-7.7l3.1-7.7l3.1-8.1l2.3-8.5l2.3-8.9l1.9-8.5l1.9-9.3l1.5-9.3l0.8-9.7l1.2-10.1l0.4-10.1v-10.1h51.9l-0.8,10.5l-1.2,10.1
		l-1.2,10.1l-1.9,9.7l-1.9,10.1l-2.3,9.3l-2.7,9.7l-2.7,8.9l-3.5,9.3l-3.5,8.9l-3.9,8.5l-3.9,8.5l-4.3,8.1l-4.6,8.1l-5,8.1l-5,7.7
		l-5,7.4l-5.4,7.4l-5.8,7l-5.8,7l-6.2,6.6l-6.2,6.6l-6.6,6.2l-6.6,6.2l-7,5.8l-7,5.4l-7,5.4l-7.4,5l-7.4,5l-7.4,4.3l-7.7,4.6
		l-7.7,3.9l-7.7,3.9l-7.7,3.9l-8.1,3.5l-8.1,3.1l-8.1,2.7l-8.1,2.7l-8.1,2.3l-8.1,1.9l-8.5,1.5l-8.1,1.5l-8.5,1.2l-8.5,1.2l-8.1,0.4
		l-8.5,0.4H141h-8.5l-8.1-0.8l-8.5-0.8l-8.1-1.2l-8.1-1.5l-8.1-1.5l-7.7-1.9l-8.1-2.7l-7.7-2.7l-7.7-3.1l-7.7-3.1L45,419l-7.7-3.9
		l-7.4-4.3l-7-5l-7-5L9,395.3L9,395.3z M426.8,172.7h27.9v181.6h-27.9V172.7L426.8,172.7z M501.6,317.9h47.2v36.4h-74.7V172.7h27.5
		V317.9L501.6,317.9z M671.9,172.7h51.5h3.5l2.7,0.4l3.1,0.8l2.7,0.8l2.3,1.2l2.3,1.2l4.3,3.1l1.9,1.9l1.9,2.3l1.9,2.3l1.5,2.3
		l2.7,5.4l1.9,6.2l1.2,2.7l1.2,3.1l1.5,6.6l0.8,7.4v7.4l-0.4,7.4l-0.8,7.7l-1.9,7.4l-1.9,7.4l-3.1,5.4l-3.1,5l-1.5,2.3l-1.9,1.5
		l-1.9,1.5l-2.3,0.8l20.5,80.2h-28.7l-17-71.6h-19v71.6h-25.9V172.7L671.9,172.7z M697.5,205.2v45.3h21.7h1.9l1.5-0.4l3.1-1.2
		l2.7-1.9l2.3-2.3l1.5-3.9l1.2-3.9l0.8-3.9l0.4-3.9l-0.4-5.4l-0.8-4.3l-0.8-3.9l-1.5-3.5l-1.2-1.5l-1.2-1.5l-1.2-1.2l-1.2-1.2
		L725,206l-1.5-0.4l-3.1-0.4H697.5L697.5,205.2z M587.1,172.7h37.6l32.9,181.6h-30.2l-6.2-45.7h-32.1l-8.1,45.7h-28.7L587.1,172.7
		L587.1,172.7z M616.6,281.5l-8.9-60.4h-4.3l-10.5,60.4H616.6L616.6,281.5z"/>
	<path fill-rule="evenodd" clip-rule="evenodd" d="M452,414.7l6.2-3.9l4.3-2.7l4.6-3.1l3.5-3.5l1.5-1.9l0.8-1.5l0.8-1.9v-1.9
		l-0.8-1.5l-1.2-1.9l-1.9-1.2l-1.5-0.4h-1.5l-1.9,0.8l-1.5,1.5l-1.5,1.5l-2.7,4.6l-2.3,5l-1.9,5l-2.7,7.4V414.7L452,414.7z
		 M451.6,419l-0.4,3.9v3.1l0.8,2.3l1.2,1.9l1.9,1.2l1.9,0.8h2.3h2.7l2.7-0.4l3.1-0.8l5.8-1.9l5.4-2.3l5-1.9l-1.2,2.3l-1.9,2.3
		l-3.1,2.3l-3.1,2.3l-3.9,2.3l-4.3,1.5l-4.3,1.2l-4.3,0.8h-4.3l-3.5-0.8l-1.9-0.4l-1.5-1.2l-1.2-1.2l-1.2-1.2l-1.2-1.5l-0.8-1.9
		l-0.4-2.3l-0.4-2.7V424v-3.1l0.8-3.9l0.8-3.9l1.5-4.3l1.5-4.3l1.9-3.5l2.3-3.1l2.3-3.1l2.3-2.3l2.3-1.9l2.3-1.9l2.7-1.2l2.3-1.2
		l2.7-0.8l2.3-0.4l2.3-0.4l1.9,0.4l1.9,0.4l1.9,0.4l1.5,1.2l1.2,0.8l1.2,1.5l0.4,1.5l0.4,1.5l-0.4,1.9l-0.4,1.9l-1.2,1.9l-1.5,2.3
		l-2.3,2.3l-2.7,2.3l-3.1,2.7l-4.3,2.7l-4.6,2.7l-5,2.7l-6.2,2.7H451.6L451.6,419z M510.1,397.3l3.5-1.5l3.5-1.9l7.4-4.6l3.5-2.3
		l3.5-1.9l3.5-1.2l3.5-0.4h1.2l0.8,0.8l0.4,0.8l0.4,1.2l-0.4,3.1l-0.8,3.9l-3.5,9.3l-3.5,9.7l-1.5,4.6l-0.8,4.3l-0.4,3.5l0.4,1.5
		l0.4,1.2l0.8,0.8l1.2,0.4h1.5h1.9l1.9-0.8l2.7-0.8l6.6-3.5l-0.4,0.8l-1.2,1.2l-3.5,3.1l-4.6,3.9l-5,3.5l-5,2.7l-2.3,0.8l-1.9,0.4
		h-1.9l-1.2-0.4l-1.2-1.5v-1.9v-3.9l0.8-4.6l1.5-4.3l1.2-4.6l3.1-8.9l2.3-7.4l0.8-2.7l-0.4-2.3v-0.8l-0.4-0.8l-0.8-0.4l-1.2-0.4
		l-2.3,0.4l-3.9,1.5l-5,2.7l-6.6,3.9l-9.7,32.5l-9.7,3.5l1.9-5.8l3.1-7.7l3.5-8.5l2.3-8.5l1.2-3.5l0.4-3.5v-2.7l-0.8-2.3l-0.8-0.8
		l-0.8-0.4l-1.2-0.4h-1.2l-3.1,0.4l-4.3,1.9l0.4-3.5l8.5-5.4l4.6-2.7l4.3-1.5l1.9-0.4h1.5l1.2,0.4l0.8,1.2v1.9v2.3l-1.2,3.5
		L510.1,397.3L510.1,397.3z M579,453.8l-1.2-1.2l-1.2-1.9l-1.9-4.3l-1.5-5.4l-1.2-5.4l-1.9-11.6l-1.2-8.9l-3.5,3.1l-3.1,3.5
		l-2.7,3.1l-2.3,3.5l-1.9,3.9l-1.5,3.9l-1.5,3.9l-1.2,4.6l-4.3-0.4l-1.2-0.4l-1.2-0.4l-0.8-0.8l-0.4-1.2l-0.4-0.8v-1.2l0.8-2.7
		l1.5-2.7l2.3-3.1l2.7-3.5l6.2-6.2l5.8-5.4l6.6-5.4l-2.3-10.1l-1.2-3.9l-0.4-1.5l-0.8-1.5l-1.2-0.8l-1.2-0.8l-1.5-0.4l-1.5,0.4
		l-1.9,0.4l-2.3,1.2l-2.7,1.5l-3.1,2.3v-3.5l6.6-5l5.4-3.5l2.3-1.2l1.9-0.4l1.9-0.4l1.5,0.4l1.5,0.4l1.2,1.5l1.2,1.5l1.2,1.9
		l0.8,2.7l0.8,3.1l1.5,8.1l5-5.8l3.9-3.9l4.3-3.9l4.3-3.5l2.3-1.2l2.3-1.2l1.9-0.4h1.9l1.9,0.4l1.5,1.2l-0.8,3.9l-0.4,3.1l-0.8,1.2
		l-0.8,1.2l-1.2,0.4l-1.5-0.4l-1.5-0.4h-1.9l-3.1,0.8l-3.1,1.5l-3.1,1.9l-2.7,2.3l-2.7,2.7l-5,4.6l1.5,13.9l1.5,9.7l1.2,4.6l1.2,5
		l1.5,4.6l1.9,3.9l1.9,3.9l2.3,2.7l1.5,1.2l1.2,0.8l1.5,0.8l1.5,0.4h1.9h1.9l1.9-0.8l1.9-0.8l2.3-1.9l1.5-1.9l1.9-2.7h0.4l0.4,0.8
		l2.3,7.4l-4.3,1.5l-4.6,1.2l-4.6,0.8h-4.6l-4.6-0.8l-2.3-0.8l-1.9-0.8l-1.9-1.2l-1.9-1.5l-1.5-1.9L579,453.8L579,453.8z
		 M639.8,383.3h2.3l1.9,0.4l1.9,0.8l1.5,1.2l1.5,1.2l1.2,1.5l0.8,1.9l0.4,1.9l0.4,1.9l0.4,2.3l-0.4,4.6l-1.2,5l-1.9,5.4l-2.3,5.4
		l-3.1,5l-3.9,4.6l-4.3,4.3l-4.6,3.9l-2.3,1.5l-2.7,1.2l-2.7,1.2l-2.7,0.8l-2.7,0.4h-3.1h-1.9l-1.9-0.4l-1.9-0.8l-1.2-1.2l-1.2-1.2
		l-1.2-1.5l-0.8-1.9l-0.4-1.9l-0.8-4.3l0.4-4.6l0.8-5l1.9-5.4l2.3-5.4l2.7-5l3.9-4.6l3.9-4.3l4.6-3.9l2.3-1.5l2.7-1.2l2.7-1.2
		l2.7-0.8l2.7-0.4H639.8L639.8,383.3z M632.1,389.5h-1.5l-1.2,0.4l-2.7,1.5l-2.7,2.3l-2.3,2.7l-2.3,3.5l-1.9,3.5l-1.5,3.9l-1.2,4.3
		l-0.8,4.3l-0.4,3.9v3.9l0.4,3.1l1.2,2.7l0.8,1.2l1.2,1.2l1.2,0.8l1.2,0.8l1.5,0.4h1.5h1.5l1.5-0.4l2.7-1.5l2.7-2.3l2.7-2.7l1.9-3.1
		l1.9-3.9l1.9-3.9l1.2-4.3l0.8-4.3l0.4-3.9l-0.4-3.5l-0.4-3.5l-1.5-2.7l-0.8-1.2l-0.8-1.2l-1.2-0.8l-1.5-0.8l-1.5-0.4H632.1
		L632.1,389.5z M657.2,404.2l0.8-4.3l1.2-3.9l1.2-3.1l1.5-2.7l1.5-1.9l1.5-1.9l1.5-1.2l1.9-1.2l2.3-0.4l2.3-0.4l5.4-0.4l13.9,0.4
		v1.2l-0.4,1.9l-0.8,1.9l-1.5,2.3l-8.1,11.6l-3.9,7l-1.5,3.5l-1.2,3.1l-0.4,3.5v3.5l0.4,3.1l1.5,3.1l1.2,1.2l0.8,0.8l1.2,0.8h1.2
		h1.5l1.2-0.4l2.7-1.2l2.7-2.3l2.7-3.1l2.7-3.9l2.7-4.3l2.3-4.3l2.3-5l1.5-5l1.2-5l1.2-4.6V388l-0.4-4.3l-1.2-3.9l8.5-3.1l1.5,1.5
		l1.2,1.9l0.8,1.9l0.4,1.9v2.3v2.7l-0.8,5.4l-1.9,5.8l-2.7,5.8l-3.5,6.2l-3.9,5.8l-4.3,5.4l-4.6,5l-5,4.3l-4.6,3.5l-2.7,1.5
		l-2.3,0.8l-2.3,0.8l-2.3,0.4h-1.9h-2.3l-1.9-0.8l-1.9-1.2l-1.9-2.3l-0.8-2.7l-0.8-2.7v-2.7l0.4-3.1l1.2-3.1l1.2-3.5l1.2-3.1
		l3.9-6.2l3.9-5.8l3.5-5l3.1-3.9h-8.9l-3.1,0.4l-2.7,0.4l-1.2,0.8l-1.2,0.8l-1.9,2.7l-1.5,3.5l-1.9,5L657.2,404.2L657.2,404.2z
		 M767.2,424l-0.4,0.8l-0.4,1.2l-1.9,2.3l-2.7,2.3l-3.5,1.9l-6.6,4.3l-5,2.3l-3.1,0.4h-1.2l-0.8-0.4l-0.4-0.4l-0.4-0.8V436l0.4-2.3
		l0.4-2.3l0.4-2.3l0.4-2.7l-7,4.3l-6.2,3.9l-5.4,3.1l-1.9,1.2l-1.9,0.4H718l-1.2-0.8l-1.2-1.5l-0.8-2.3V431v-4.3l0.8-5.8l0.8-6.6
		l0.8-3.5l0.8-3.1l1.5-3.1l1.5-2.7l1.5-2.7l1.9-2.7l2.3-2.3l2.3-2.3l2.7-1.9l2.7-1.5l2.7-1.5l3.1-1.2l3.1-1.2l3.1-0.8l3.1-0.4h3.5
		h2.3l2.3,0.8l1.5,0.8l1.2,0.8l1.2,1.5l0.4,1.5l0.4,1.9v1.9l-1.2,4.3l-1.2,4.6l-4.3,9.7l-1.9,4.6l-1.5,4.3l-0.8,3.5v1.5v1.2l0.4,0.8
		l0.8,0.8l1.2,0.4h1.9l1.9-0.8l2.3-0.8L767.2,424L767.2,424z M743.2,420.1l8.5-29.4h-4.6l-3.9-0.4h-3.1l-2.7,0.4l-1.2,0.8l-1.2,0.8
		l-1.2,1.2l-1.2,1.5l-1.9,3.9l-2.3,5.8l-2.3,7.7l-1.5,6.6l-0.4,2.3v2.3l0.4,1.9l0.4,1.2l0.8,1.2l1.5,0.4h1.5l1.9-0.4l2.3-1.2
		l3.1-1.5l7-4.6V420.1L743.2,420.1z M775.7,393.8l5.4-2.7l4.6-2.3l3.9-1.5l3.5-0.8l2.3-0.4h1.9l1.5,0.4l0.8,1.2l0.4,1.2l0.4,1.5
		l-0.4,1.9l-0.8,2.3l-1.9,5l-2.3,5.4l-2.7,5.4l-2.3,5.4l-1.5,4.6l-0.4,2.3v1.9l0.4,1.5l0.8,1.2l1.2,0.8l1.5,0.4h2.7l2.7-0.8l3.9-1.2
		l4.3-1.5l-0.4,1.2l-1.2,1.5l-3.9,3.1l-4.6,3.1l-5,2.7l-5.4,1.9l-2.3,0.8h-1.9l-1.9-0.4l-1.2-0.4l-0.8-1.2l-0.4-1.9v-3.1l0.8-3.1
		l2.3-7.4l3.1-7.7l2.7-7.4l0.8-3.1l0.4-2.7v-2.3l-0.4-1.9l-0.8-0.4l-0.8-0.4l-0.8-0.4h-1.5l-3.1,0.4l-3.9,1.5L775.7,393.8
		L775.7,393.8z M805.2,358.5l0.4,2.3l0.8,2.3l2.3,5l-10.1,5.4l-1.9-1.9l-1.2-2.3l-0.8-2.7l-0.4-3.1L805.2,358.5L805.2,358.5z
		 M797.4,428.2l9.7-6.6l1.2,4.3l1.5,3.1l1.9,2.7l1.9,1.5l2.3,0.8l2.7,0.4l2.3-0.4l1.9-0.8l1.9-1.2l1.5-1.5l0.8-2.3l0.4-2.3l-0.4-2.3
		l-1.2-2.7l-1.9-3.1l-3.1-2.7l-2.3-1.2l-1.9-1.2l-1.5-1.5l-1.2-1.5l-1.2-1.5l-0.4-1.5l-0.4-1.5v-1.5l0.4-1.9l0.4-1.5l1.5-3.5
		l2.3-3.1l3.1-3.1l3.1-2.7l3.9-2.3l3.5-1.5l3.9-1.2h3.1h1.5l1.5,0.4l1.5,0.8l1.2,1.2l0.8,1.2l0.8,1.5l-6.6,7.4l-1.9-1.9l-2.3-1.5
		l-1.9-1.2l-2.3-0.4h-1.9l-1.9,0.4l-1.9,0.8l-1.5,0.8l-1.2,1.5l-0.8,1.5v1.9v1.9l1.2,1.9l1.5,2.3l2.3,1.9l3.1,2.3l1.9,1.9l1.9,1.9
		l1.5,1.5l1.2,1.9l0.4,1.9l0.4,2.3l0.4,1.9l-0.4,1.9l-0.4,1.5l-0.8,1.9l-2.3,3.5l-2.7,3.1l-3.5,2.7l-3.9,2.3l-4.3,1.5l-4.3,0.8h-1.9
		l-1.9-0.4l-1.9-0.4l-1.9-0.8l-1.9-1.2l-1.5-1.2l-1.5-1.5l-1.2-1.9l-1.2-2.3l-0.8-2.3H797.4L797.4,428.2z M499.2,460.4l9.3-5
		l0.8,2.3l0.4,2.3v2.3l-0.4,2.3l-0.4,2.3l-1.2,1.9l-1.2,1.9l-1.5,1.9l-3.9,3.9l-4.3,3.1l-5,3.5l-5.4,3.1l-10.8,5.8l-5,2.7l-4.6,3.1
		l-3.9,2.7l-3.1,3.1l-1.2,1.5l-0.8,1.5l-0.4,1.5l-0.4,1.5l0.4,2.7l0.4,2.7l0.8,2.3l1.2,1.9l1.5,1.9l1.5,1.5l1.9,1.2l1.9,1.2l2.3,0.8
		l2.3,0.8l2.3,0.4h2.7l5.4-0.4l5.8-1.2l5.8-1.9l5.4-2.7l5.4-3.9l2.3-1.9l1.9-2.3l2.3-2.7l1.9-2.7l1.5-2.7l1.2-3.1l1.2-3.1l0.8-3.5
		l0.8-3.5v-3.9l-5.4,0.4l-4.3,0.8l-3.9,1.5l-1.5,1.2l-1.2,1.2l-2.3,2.7l-1.9,3.9l-1.9,4.3l-1.5,5.4l-3.9-1.2l4.6-14.3l2.3-5l1.2-2.3
		l1.5-1.5l1.5-1.5l1.9-1.2l1.9-1.2l2.7-0.8l2.7-0.4l3.5-0.4l8.1-0.4l1.2-0.4l1.2-0.8l2.7-1.9h0.4h0.8l1.5,1.2l2.3,1.2l1.2,0.4
		l1.5,0.4l1.5-0.4l1.5-0.4l1.5-0.8l1.9-1.5l1.9-1.9l1.5-2.7l1.9-3.5l1.9-4.6l2.3,1.9l-3.5,10.8l-1.5,3.9l-1.5,3.1L543,484l-1.2,1.2
		l-1.5,0.8l-1.9,0.8l-4.6,0.8l-6.6,0.4l-0.8,4.6l-1.5,4.6l-1.9,4.3l-2.3,4.3l-2.3,4.3l-3.1,3.5l-3.5,3.5l-3.5,3.5l-3.9,2.7l-3.9,2.7
		l-4.3,2.3l-4.3,1.9l-4.6,1.5l-4.6,1.2l-5,0.4l-4.6,0.4l-5.4-0.4l-5-0.4l-4.3-1.2l-3.5-1.5l-2.7-1.9l-2.3-2.3l-1.5-2.3l-1.2-2.7
		l-0.8-3.1v-3.1v-3.1l0.8-3.5l0.8-3.1l1.5-3.5l1.5-3.5l1.9-3.1l4.3-6.2l5-5.8l2.3-2.3l2.7-2.3l2.7-1.5l2.7-1.5l2.7-1.2l2.3-0.4
		l2.3-0.4l2.3,0.4l1.9,1.2l1.9,1.5l1.2,1.9l1.5,2.7l4.3-2.3l3.1-2.3l1.9-1.5l0.8-1.9l0.8-1.9v-2.7L499.2,460.4L499.2,460.4z
		 M457,499.1l20.9-11.2v-3.1l-0.8-1.9l-0.8-1.5l-1.5-0.8l-1.5-0.4l-1.5,0.4l-1.9,0.8l-1.5,1.2l-1.9,1.5l-1.9,1.5l-3.5,4.3l-1.2,2.3
		l-1.2,2.3l-0.8,2.7L457,499.1L457,499.1z M549.2,567.7l1.2-0.8l1.2-0.8l1.9-2.3l1.9-3.1l1.9-4.3l2.3-5l1.9-5l3.5-12l3.1-12.4
		l2.7-12l1.5-10.5l0.8-7.7l-0.4-2.3l-0.4-0.4l-0.8-0.4l-1.2-0.4h-1.5L567,489l-1.5,0.8l-3.1,1.9l0.8-1.2l0.8-1.5l3.1-3.1l4.3-3.9
		l4.3-2.7l2.3-1.2l1.9-0.4h1.5l1.5,0.8l0.8,1.5l0.4,2.3v3.1l-0.8,4.3l4.6-3.1l4.3-2.7l3.9-1.9l3.5-1.2l2.7-0.8h2.7l1.9,0.4l1.9,1.2
		l1.2,1.2l1.2,1.5l0.8,2.3l0.4,2.3v2.7v2.7l-0.8,3.1l-0.8,3.1l-2.3,6.2l-3.1,6.6l-1.9,3.1l-2.3,2.7l-2.3,2.7l-2.3,2.7l-2.7,2.3
		l-2.7,1.9l-2.7,1.5l-3.1,1.2l-3.1,0.8l-3.1,0.4h-3.1l-3.1-0.8l-8.1,34.5l12.4,2.3l-1.5,0.8l-1.5,0.8l-3.9,1.2l-4.3,0.8h-4.3
		l-8.9-0.4l-8.1-0.4l0.4-0.4l1.2-0.8l3.5-2.7H549.2L549.2,567.7z M594.5,519.2l1.2-3.5l1.9-5l1.9-6.2l1.5-6.2l0.4-2.7v-2.7v-2.3
		l-0.8-1.9l-1.2-1.2l-1.9-0.8l-1.9,0.4l-3.1,1.2l-2.3,0.8l-1.9,0.8l-1.9,1.5l-1.9,1.5l-1.5,1.9l-1.2,1.9l-2.3,5l-1.9,5l-1.2,5.4
		l-0.4,4.6l-0.4,4.3l0.4,1.2l0.4,1.2l1.2,0.8l1.2,0.4l3.1,0.8l3.1,0.4l3.5-0.8l1.5-0.4l1.5-0.8l1.2-0.8l0.8-1.2l0.8-1.2L594.5,519.2
		L594.5,519.2z M661.1,488.3l-4.6-0.4h-3.9l-3.1,0.8l-2.7,1.2l-2.3,1.9l-1.9,2.3l-1.5,2.3l-1.2,3.1l-1.2,3.5l-1.2,3.5l-1.5,7.4
		l-1.5,8.1l-1.9,8.1l-10.1,3.5l4.3-11.2l2.7-9.3l2.7-9.3l0.8-4.3l0.8-3.9v-3.1l-0.8-2.7l-0.4-0.8l-0.8-0.8l-1.2-0.4h-1.2h-1.2
		l-1.9,0.8l-3.9,2.3v-3.5l2.3-0.4l2.3-0.8l1.9-1.2l2.3-1.2l4.3-3.1l3.5-2.3l1.5-1.2l1.2-0.4l1.2-0.4l0.8,0.8l0.8,1.2l0.4,1.9
		l0.4,3.1l-0.4,3.9l4.3-4.3l2.3-1.9l2.3-1.9l2.7-1.2l2.7-0.8l2.7-0.4l3.1,0.8L661.1,488.3L661.1,488.3z M669.6,508l5.4-3.1l4.3-3.1
		l5-3.5l3.9-3.9l1.5-1.9l1.2-1.5l0.8-1.9v-1.5l-1.2-1.5l-1.5-1.2l-1.5-1.5l-1.5-0.8h-1.5l-1.5,0.8l-1.5,1.2l-1.5,1.9l-3.1,4.6
		l-2.3,5.4l-2.3,5l-2.3,7V508L669.6,508z M669.2,512.7l-0.8,3.9v3.1l0.8,2.7l1.2,1.5l1.5,1.2l2.3,0.8h2.7h2.7l2.7-0.8l3.1-0.8
		l6.2-1.9l5.4-1.9l4.3-1.9l-0.8,1.5l-0.8,1.5l-2.3,2.7L694,527l-3.9,2.3l-4.3,1.9l-4.6,1.2l-4.6,0.8h-4.6l-2.3-0.4l-1.9-0.4
		l-1.9-0.8l-1.5-1.2l-1.5-1.2l-1.2-1.5l-1.2-1.9l-0.8-2.3l-0.4-2.3l-0.4-2.7l0.4-3.1l0.4-3.5l1.2-3.9l1.2-3.9l1.9-4.6l2.3-5l1.5-2.7
		l1.9-2.3l1.9-2.3l1.9-1.9l4.3-3.5l4.3-2.3l4.3-1.2l3.9-0.4h3.5l3.1,1.2l2.3,1.5l0.8,1.2l0.8,1.2l0.4,1.2v1.5v1.5l-0.4,1.5l-0.8,1.5
		l-1.2,1.9l-1.5,1.5l-1.9,1.9l-4.6,4.3l-6.6,3.9l-9.3,5.4l-6.2,3.5H669.2L669.2,512.7z M698.7,521.6l9.7-5.8l1.5,4.3l1.5,3.1
		l1.9,2.3l2.3,1.5l2.3,0.8l2.3,0.4l2.3-0.8l2.3-0.8l1.9-1.5l1.5-1.9l0.8-1.9l0.4-2.3l-0.4-2.7l-1.2-2.3l-2.3-2.3l-3.1-2.3l-2.3-1.5
		l-1.9-1.5l-1.5-1.5l-1.2-1.9l-1.2-1.5l-0.4-1.5l-0.4-1.9l0.4-1.5v-1.9l0.8-1.5l1.5-3.5l2.3-3.1l3.1-2.7l3.5-2.7l3.5-1.9l3.5-1.2
		l3.9-1.2h3.1l1.5,0.4l1.5,0.4l1.2,0.8l1.2,1.2l0.8,1.2l0.8,1.2l-7,7.4l-1.9-1.9l-1.9-1.5l-1.9-1.2l-2.3-0.4h-1.9l-2.3,0.4l-1.5,0.8
		l-1.5,0.8l-1.2,1.5l-0.8,1.5l-0.4,1.5l0.4,1.9l0.8,2.3l1.5,1.9l2.3,2.3l3.1,2.3l2.3,1.5l1.9,1.9l1.5,1.9l0.8,1.9l0.8,1.9l0.4,1.9
		l0.4,1.9l-0.4,1.9l-0.4,1.9l-0.8,1.9l-2.3,3.5l-2.7,3.1l-3.5,2.7l-3.9,2.3l-4.3,1.5l-4.3,0.4h-1.9h-2.3l-1.9-0.4l-1.5-0.8l-1.9-1.2
		l-1.5-1.2l-1.5-1.5l-1.2-1.9l-1.2-2.3l-1.2-2.7H698.7L698.7,521.6z M756.8,508l5.8-3.1l4.6-3.1l4.6-3.5l4.3-3.9l1.5-1.9l1.2-1.5
		l0.4-1.9v-1.5l-1.2-1.5l-1.5-1.2l-1.2-1.9l-1.2-1.2H773l-1.5,0.4l-1.5,1.5l-1.5,1.9l-3.5,5l-2.7,5.8l-2.7,5.8l-2.7,6.2V508
		L756.8,508z M756.4,512.7l0.4,3.9l0.4,3.1l1.2,2.7l1.2,1.5l1.5,1.5l1.5,0.8l2.3,0.4h1.9l2.7-0.4l2.3-0.8l5.4-1.9l12-5l-1.2,1.9
		l-1.9,2.7l-2.7,2.3l-3.5,2.3l-3.9,1.9l-4.3,1.5l-4.3,1.5l-4.3,0.8h-3.9l-3.9-0.8l-1.9-0.4l-1.5-1.2l-1.2-0.8l-1.2-1.5l-1.2-1.5
		l-0.8-1.9l-0.4-2.3l-0.4-2.7v-2.7l0.4-3.1l0.4-3.9l1.2-3.9l0.8-3.9l1.2-3.5l1.5-3.5l1.5-3.1l1.9-2.7l1.9-2.3l2.3-1.9l2.3-1.9
		l2.3-1.5l2.3-1.2l2.3-0.8l2.3-0.8l4.6-0.8h4.3l1.9,0.4l1.9,0.4l1.2,0.8l1.5,1.2l0.8,1.2l0.8,1.2v1.5v1.5l-0.4,1.5l-0.8,1.9
		l-1.5,1.9l-1.9,1.9l-2.3,2.3l-3.1,2.3l-3.5,2.3l-3.9,2.3l-7.7,4.3L756.4,512.7L756.4,512.7z M815.6,491l12-5.4l8.9-4.3l3.1-1.5
		l2.7-0.8l1.5-0.4l1.2,0.4l0.8,1.2l-0.4,1.9l-0.4,3.1l-1.2,3.9l-3.1,11.6l-5,16.3l0.4,1.9v1.5l0.8,1.2l0.4,0.8l0.8,0.4l1.2,0.4
		l1.9-0.4l2.7-1.2l3.1-1.5l5.8-3.5l-1.2,1.9l-2.3,2.7l-3.5,2.7l-3.9,2.7l-4.3,2.7l-3.9,2.3l-3.5,1.5l-2.7,0.4h-1.2l-1.2-0.8
		l-0.8-0.8l-0.4-1.2l-0.4-1.5l0.4-1.9l0.8-3.9l1.2-4.6l1.9-5.4l3.5-10.1l1.5-4.6l1.2-4.3v-1.5v-1.5l-0.4-1.2L833,489l-0.8-0.4
		l-1.5-0.4l-1.5,0.4l-2.3,0.8l-2.3,0.8l-3.1,1.5l-7.7,5l-10.1,32.5l-9.3,3.5l1.9-5.8l3.1-7.7l3.1-8.5l2.7-8.5l1.2-3.5l0.4-3.5v-2.7
		l-0.8-2.3l-0.8-0.8l-0.8-0.4l-1.2-0.4l-1.2-0.4L799,489l-4.3,1.9l0.4-3.5l9.3-6.2l4.3-2.3l1.9-1.2l1.5-0.4l1.5-0.4l1.5,0.4l0.8,0.8
		l0.8,1.2l0.4,1.9v2.7l-0.8,3.1l-0.8,4.3V491L815.6,491z M895.8,486.3l-2.3,1.9l-2.3,1.5l-2.3,0.8h-2.3h-5l-6.6-0.4l-3.5,14.3
		l-1.5,6.6l-0.4,3.1v3.1v2.3l0.8,1.9l1.2,1.2l1.9,0.8h2.3l3.1-0.8l4.3-1.9l4.6-2.3v3.5l-1.9,0.4l-1.9,0.8l-5,2.7l-5,3.5l-5.4,2.7
		l-2.3,1.2l-1.9,0.4l-1.9-0.4l-1.5-0.8l-1.2-1.9l-0.4-2.7l-0.4-3.9l0.8-5l7-28.7h-6.6l-3.5-0.4l-1.2-0.4l-0.4-0.4v-0.4l0.4-0.8
		l1.9-0.8l2.7-0.8l3.5-0.4l3.9-0.4l4.6-16.7l10.5-4.6l-5.4,21.3L895.8,486.3L895.8,486.3z M905.8,508l5.4-3.1l4.6-3.1l4.6-3.5
		l4.3-3.9l1.5-1.9l1.2-1.9l0.4-1.5v-1.5l-0.8-1.5l-1.5-1.2l-1.5-1.5l-1.5-0.8h-1.5l-1.5,0.8l-1.5,1.2l-1.5,1.9l-3.1,4.6l-2.7,5.4
		l-1.9,5l-2.7,7V508L905.8,508z M905.4,512.7l-0.8,3.9v3.1l0.8,2.3l1.2,1.9l1.9,1.2l2.3,0.8h2.3h2.7l3.1-0.8l3.1-0.8l5.8-1.9
		l5.4-1.9l4.3-1.9l-0.8,2.3l-2.3,2.3l-2.7,2.3l-3.1,2.3l-3.9,1.9l-4.3,1.9l-4.3,1.2l-4.3,0.8h-4.3l-3.5-0.8l-1.9-0.8l-1.5-0.8
		l-1.2-1.2l-1.5-1.2l-0.8-1.9l-0.8-1.9l-0.8-1.9v-2.7v-2.7v-3.5l0.8-3.5l0.8-3.9l1.5-3.9l1.2-3.9l1.9-3.1l1.9-3.1l1.9-2.7l1.9-2.3
		l2.3-2.3l2.3-1.5l2.3-1.5l2.3-1.2l4.6-1.9l4.3-0.8l4.3,0.4l1.5,0.4l1.5,0.4l1.2,0.8l1.2,1.2l0.8,0.8l0.8,1.5v1.2v1.9l-0.4,1.5
		l-1.2,1.9l-1.2,1.9l-1.9,1.9l-2.3,2.3l-2.7,2.3l-3.5,2.3l-3.9,2.3l-9.3,5.4l-5.8,3.5H905.4L905.4,512.7z M935.3,521.6l9.7-5.8
		l1.2,4.3l1.9,3.1l1.9,2.3l2.3,1.5l2.3,0.8l2.3,0.4l2.3-0.8l2.3-0.8l1.5-1.5l1.5-1.9l1.2-1.9v-2.3l-0.4-2.7l-1.2-2.3l-1.9-2.3
		l-3.5-2.3l-2.3-1.5l-1.9-1.5l-1.5-1.5l-1.2-1.9l-0.8-1.5l-0.4-1.5l-0.4-1.9V496l0.4-1.9l0.4-1.5l1.9-3.5l2.3-3.1l3.1-2.7l3.1-2.7
		l3.9-1.9l3.5-1.5l3.5-0.8h3.5l1.5,0.4l1.2,0.4l1.5,0.8l0.8,1.2l1.2,1.2l0.8,1.2l-7,7.4l-2.3-1.9l-1.9-1.5l-2.3-1.2l-2.3-0.4h-1.9
		l-1.9,0.4l-1.5,0.8l-1.5,1.2l-1.2,1.2l-0.8,1.5v1.9l0.4,1.9l0.8,1.9l1.5,2.3l2.3,1.9l3.1,2.3l2.3,1.5l1.5,1.9l1.5,1.9l1.2,1.9
		l0.8,1.9l0.4,1.9v1.9l-0.4,1.9l-0.4,1.9l-0.8,1.9l-1.9,3.5l-3.1,3.1l-3.5,2.7l-3.9,2.3l-4.3,1.5l-3.9,0.4h-2.3h-1.9l-1.9-0.4
		l-1.9-0.8l-1.5-1.2l-1.9-1.2l-1.2-1.5l-1.5-1.9l-1.2-2.3l-0.8-2.7H935.3L935.3,521.6z"/>
</g>
</svg>
